<?xml version="1.0" encoding="UTF-8" standalone="yes"?>
<svg viewBox="0 0 100 100" version="1.2" baseProfile="tiny-ps" xmlns="http://www.w3.org/2000/svg">
  <title>Giessmann</title>
  <defs>
    <linearGradient id="sw-gradient" x1="0" x2="1" y1="1" y2="0"/>
  </defs>
  <path fill="none" d="M11.7,-22.6C16.1,-17.7,21.3,-16.5,24.4,-13.4C27.5,-10.2,28.6,-5.1,30.4,1.1C32.2,7.2,34.8,14.4,32.3,18.6C29.7,22.7,22,23.8,15.8,24.7C9.6,25.7,4.8,26.5,-0.3,27C-5.4,27.6,-10.8,27.8,-16,26.2C-21.2,24.7,-26.3,21.4,-31.6,16.7C-36.9,12.1,-42.4,6,-40.6,1C-38.8,-4,-29.7,-7.9,-24.2,-12.3C-18.8,-16.6,-16.9,-21.3,-13.5,-26.8C-10,-32.2,-5,-38.3,-0.7,-37.1C3.6,-35.9,7.3,-27.4,11.7,-22.6Z" transform="translate(50 50)" stroke-width="1" stroke="url(#sw-gradient)"/>
</svg>